# xmcd CD database file
#
# Track frame offsets:
#	150
#	15195
#	31610
#	47110
#	60400
#	72167
#	85780
#	98275
#	112835
#	127415
#	141477
#	156015
#	169102
#	182492
#	195592
#	210015
#	223557
#	238222
#	254170
#	264930
#	277850
#	292197
#	303807
#	317167
#	330437
#
# Disc length: 4595 seconds
#
# Revision: 1
# Processed by: cddbd v1.5.1PL2 Copyright (c) Steve Scherf et al.
# Submitted via: CDex 1.51
#
DISCID=5311f119
DTITLE=Various Artist - The Blues: 1927 - 1946 [CD1]
DYEAR=1994
DGENRE=Blues
TTITLE0=Big Road Blues/Tommy Johnson
TTITLE1=Canned Heat Blues/Tommy Johnson
TTITLE2=Trouble-Hearted Blues/Ishman Bracy
TTITLE3=Dark Night Blues/Blind Willie McTell
TTITLE4=Love Talking Blues/Blind Willie McTell
TTITLE5=Drayman Blues/Clifford Gibson
TTITLE6=She Rolls it Slow/Clifford Gibson
TTITLE7=The Panama Ltd./Bukka White
TTITLE8=I'm Wild About My Loving/Jim Jackson
TTITLE9=Dry Land Blues/Furry Lewis
TTITLE10='Taint Nobody's Business if I Do, Part 2/Frank Stokes
TTITLE11=Frank Stokes' Dream/Frank Stokes
TTITLE12=The Girl I Love, She Got Long Curly Hair/Sleepy John Estes
TTITLE13=Poor John Blues/Sleepy John Estes
TTITLE14=Lawyer Clark Blues/Sleepy John Estes
TTITLE15=A Hard Pill to Swallow/Son Bonds
TTITLE16=Don't Want no Woman/Memphis Minnie and Kansas Joe
TTITLE17=Memphis Jug Blues/Memphis Jug Band
TTITLE18=Going Back to Memphis/Memphis Jug Band
TTITLE19=Jug Band Waltz/Memphis Jug Band
TTITLE20=Viola Lee Blues/Cannon's Jug Stompers
TTITLE21=Going to Germany/Cannon's Jug Stompers
TTITLE22=Walk Right In/Cannon's Jug Stompers
TTITLE23=The Spasm/Daddy Stovepipe and Mississippi Sarah
TTITLE24=Gonna Hit the Highway/Washboard Sam and His Washboard Band
EXTD=YEAR: 1994
EXTT0=
EXTT1=
EXTT2=
EXTT3=
EXTT4=
EXTT5=
EXTT6=
EXTT7=
EXTT8=
EXTT9=
EXTT10=
EXTT11=
EXTT12=
EXTT13=
EXTT14=
EXTT15=
EXTT16=
EXTT17=
EXTT18=
EXTT19=
EXTT20=
EXTT21=
EXTT22=
EXTT23=
EXTT24=
PLAYORDER=
